<svg width="16" height="16" viewBox="0 0 16 16" fill="none" xmlns="http://www.w3.org/2000/svg">
<path d="M1.27608 3.9027C0.928158 3.9027 0.589529 3.72158 0.413259 3.40011C0.288012 3.17372 0.264809 2.92017 0.339034 2.67567C0.413259 2.43117 0.580255 2.23196 0.812203 2.1097L2.70946 1.11359C2.94141 0.991351 3.20119 0.968699 3.45167 1.04115C3.70216 1.11359 3.90627 1.2766 4.03152 1.50298C4.15676 1.72936 4.17997 1.98292 4.10574 2.22742C4.03152 2.47192 3.86452 2.67115 3.63257 2.79339L1.73532 3.7895C1.59151 3.86647 1.4338 3.9027 1.27608 3.9027ZM3.17333 1.50298C3.09913 1.50298 3.0249 1.52109 2.95531 1.55732L1.05806 2.55343C0.95136 2.61229 0.872499 2.70284 0.835386 2.82056C0.798274 2.93376 0.812203 3.056 0.872499 3.16468C0.993109 3.38199 1.27144 3.4635 1.4941 3.34578L3.39137 2.34968C3.49807 2.29082 3.57691 2.20027 3.61403 2.08253C3.65114 1.96481 3.63723 1.84709 3.57691 1.73842C3.51662 1.6343 3.42385 1.55732 3.30324 1.52109C3.26149 1.51204 3.2151 1.50298 3.17333 1.50298Z" fill="#FA6D2B"/>
<path d="M4.66287 12.786C4.66287 12.9579 4.64432 13.1301 4.60723 13.2884H7.14465L5.61848 4.31445H3.39648V10.7258C4.14797 11.1197 4.66287 11.8939 4.66287 12.786Z" fill="#AAABA9"/>
<path d="M2.8074 10.5119V2.75586L1.98633 3.10902V10.4621C2.07446 10.4531 2.16725 10.4485 2.26001 10.4485C2.4502 10.4485 2.63575 10.4712 2.8074 10.5119Z" fill="#FA6D2B"/>
<path d="M7.1377 13.293L7.26758 14.0537H8.0469L7.94949 13.293H7.1377Z" fill="#FA6D2B"/>
<path d="M14.9259 13.293H12.3281V14.0537H14.9259V13.293Z" fill="#FA6D2B"/>
<path d="M4.60499 13.293C4.54468 13.5693 4.43334 13.8228 4.28027 14.0537H7.26764L7.13777 13.293H4.60499Z" fill="#FA6D2B"/>
<path d="M2.80957 12.1645C2.99048 12.3139 3.10181 12.5358 3.10181 12.7849C3.10181 12.9751 3.03688 13.1516 2.92554 13.2874H3.39869V10.8741C3.21777 10.77 3.01832 10.693 2.80957 10.6387V12.1645Z" fill="#1D1D1B"/>
<path d="M1.98541 14.0588V13.5652C1.65605 13.452 1.41947 13.1487 1.41947 12.7911C1.41947 12.4334 1.65605 12.1301 1.98541 12.0167V10.5996C0.867457 10.7354 0 11.6636 0 12.7911C0 14.009 1.01589 15.0005 2.26372 15.0005C3.02913 15.0005 3.70641 14.6292 4.11463 14.0588H3.3956H1.98541Z" fill="#1D1D1B"/>
<path d="M4.46341 13.2884C4.50053 13.1252 4.52371 12.9577 4.52371 12.7857C4.52371 11.9707 4.06913 11.2599 3.39648 10.875V13.2884H4.46341Z" fill="#1D1D1B"/>
<path d="M2.26784 11.9685C2.47656 11.9685 2.66676 12.0409 2.81519 12.1677V10.6464C2.63892 10.6057 2.45802 10.583 2.26784 10.583C2.17505 10.583 2.08228 10.5875 1.99414 10.6011V12.0183C2.07764 11.9866 2.17041 11.9685 2.26784 11.9685Z" fill="#1D1D1B"/>
<path d="M2.8074 13.4063V13.4967H2.6775C2.55691 13.5647 2.41309 13.6055 2.26001 13.6055C2.1626 13.6055 2.06983 13.5873 1.98633 13.5601V14.0537H3.39652V13.293H2.92335C2.89088 13.3338 2.84913 13.3745 2.8074 13.4063Z" fill="#1D1D1B"/>
<path d="M3.39648 14.0537H4.11549C4.27785 13.8274 4.39846 13.5693 4.46341 13.293H3.39648V14.0537Z" fill="#1D1D1B"/>
<path d="M2.80664 13.4968V13.4062C2.76489 13.4378 2.72314 13.4696 2.67676 13.4968H2.80664Z" fill="#1D1D1B"/>
<path d="M8.47585 14.7424H12.0199V14.0586H8.3877L8.47585 14.7424Z" fill="#AAABA9"/>
<path d="M15.228 13.2486L15.9994 12.082L8.48316 12.106H8.14453L8.29296 13.2922H12.0179V12.7353H15.228V14.629V13.2486Z" fill="#AAABA9"/>
<path d="M8.39062 14.0537H12.0228V13.293H8.29785L8.39062 14.0537Z" fill="#AAABA9"/>
</svg>
